<?xml version="1.0" encoding="UTF-8"?>
<svg xmlns="http://www.w3.org/2000/svg" xmlns:xlink="http://www.w3.org/1999/xlink" width="33px" height="34px" viewBox="0 0 33 34" version="1.1">
<g id="surface1">
<path style=" stroke:none;fill-rule:nonzero;fill:rgb(90.980392%,20.392157%,11.372549%);fill-opacity:1;" d="M 24.761719 20.632812 L 27.777344 17.640625 L 26.265625 22.097656 L 24.753906 23.5625 Z M 30.324219 8.945312 L 29.074219 13.160156 L 21.542969 20.464844 L 21.542969 17.652344 Z M 32.988281 0 L 31.738281 4.210938 L 18.316406 17.335938 L 18.316406 14.542969 Z M 5.265625 17.652344 L 21.769531 34 L 18.953125 34 L 16.585938 31.671875 L 14.21875 34 L 11.257812 34 L 15.082031 30.210938 L 13.386719 28.546875 L 10.3125 31.558594 L 9.535156 29.5625 L 11.972656 27.164062 L 10.1875 25.414062 L 8.546875 27.019531 L 7.769531 25.007812 L 8.753906 24.027344 L 6.816406 22.140625 Z M 0.0117188 0 L 25.285156 25.027344 L 24.507812 27.019531 L 22.902344 25.449219 L 21.597656 26.722656 L 21.597656 24.183594 L 19.714844 22.332031 L 18.335938 23.644531 L 18.335938 20.984375 L 16.488281 19.167969 L 15.054688 20.570312 L 15.054688 17.777344 L 1.261719 4.210938 Z M 2.730469 9.082031 L 23.4375 29.652344 L 22.660156 31.644531 L 19.675781 28.65625 L 18.355469 29.929688 L 18.355469 27.363281 L 16.46875 25.511719 L 15.054688 26.875 L 15.054688 24.144531 L 13.242188 22.375 L 11.828125 23.757812 L 11.828125 20.984375 L 3.980469 13.292969 Z M 2.730469 9.082031 "/>
</g>
</svg>
